# xmcd
#
# Track frame offsets: 
#        150
#        17812
#        35772
#        50390
#        62637
#        84220
#        94265
#        117562
#        131484
#        145936
#        164962
#        181171
#
# Disc length: 2605 seconds
#
# Revision: 1
# Processed by: cddbd v1.5.2PL0 Copyright (c) Steve Scherf et al.
# Submitted via: ExactAudioCopy v1.3
#
DISCID=a80a2b0c
DTITLE=Buddy and Julie Miller - Breakdown On 20th Ave. South
DYEAR=2019
DGENRE=Country
TTITLE0=Breakdown On 20th Ave. South
TTITLE1=Feast Of The Dead
TTITLE2=Everything Is Your Fault
TTITLE3=Unused Heart
TTITLE4=I'm Gonna Make You Love Me
TTITLE5=Till The Stardust Comes Apart
TTITLE6=Underneath The Sky
TTITLE7=Spittin' On Fire
TTITLE8=Secret
TTITLE9=War Child
TTITLE10=Thought At 2AM
TTITLE11=Storm Of Kisses
EXTD=
EXTT0=
EXTT1=
EXTT2=
EXTT3=
EXTT4=
EXTT5=
EXTT6=
EXTT7=
EXTT8=
EXTT9=
EXTT10=
EXTT11=
PLAYORDER=
